<svg width="136" height="58" fill="none" xmlns="http://www.w3.org/2000/svg"><path d="M134.976 32.85c0-2.053-1.536-3.593-3.583-3.593-2.048 0-3.584 1.54-3.584 3.593s1.536 3.593 3.584 3.593c2.218 0 3.583-1.54 3.583-3.593zm-4.436.17v2.396h-.683v-5.304h1.877c1.194 0 1.706.514 1.706 1.369 0 .513-.341 1.027-.853 1.198.512 0 .683.513.683 1.197 0 .514.17 1.198.341 1.54h-.853c-.171-.513-.171-1.197-.341-1.71-.171-.514-.342-.685-.854-.685h-1.023zm1.023-.684c.683 0 1.024-.342 1.024-.684s-.17-.684-1.024-.684h-1.023v1.54h1.023v-.172zm-4.436.514c0-2.567 2.047-4.278 4.436-4.278S136 30.283 136 32.85c0 2.566-2.048 4.277-4.437 4.277-2.389 0-4.436-1.71-4.436-4.277z" fill="#000"/><path opacity=".5" d="M111.94 36.443l-4.949-5.647-4.948 5.647h-10.58L101.7 24.808 91.463 13.345h10.921l4.948 5.646 4.949-5.646h10.409l-10.238 11.463 10.409 11.635H111.94zM71.327 36.443V0h20.136v8.041H79.859v5.304h11.604v7.7H79.859v7.185h11.604v8.213H71.327z" fill="#000"/><path d="M62.795 0v14.885h-.17c-1.707-2.224-4.096-2.909-6.826-2.909-5.63 0-9.726 3.764-11.262 8.897-1.706-5.475-5.972-8.897-12.457-8.897-5.29 0-9.385 2.396-11.603 6.16v-4.79H9.727V8.211H21.5V0H0v36.443h9.726V21.215h9.556c-.341 1.027-.512 2.225-.512 3.422 0 7.528 5.802 13.003 13.14 13.003 6.143 0 10.238-2.908 12.456-8.212h-8.19c-1.195 1.54-2.048 2.053-4.266 2.053-2.56 0-4.778-2.224-4.778-4.962h16.893c.683 5.989 5.46 11.292 11.774 11.292 2.73 0 5.29-1.368 6.826-3.764h.17v2.396h8.532V0h-8.532zM27.473 21.215c.512-2.395 2.389-3.764 4.607-3.764 2.39 0 4.096 1.54 4.608 3.764h-9.215zm30.203 9.582c-3.071 0-5.119-2.909-5.119-5.989 0-3.25 1.706-6.33 5.12-6.33 3.583 0 4.948 3.08 4.948 6.33 0 3.251-1.536 5.989-4.949 5.989zM71.327 54.578V41.575h7.167v1.027h-5.972v4.79h5.802v1.027h-5.802v5.304h6.313v1.026h-7.508v-.17zM79.689 54.578l3.583-4.62-3.242-4.448h1.365l2.73 3.593 2.73-3.593h1.366l-3.413 4.449 3.583 4.62h-1.365l-2.9-3.936-2.73 3.935h-1.707zM90.269 58h-1.024v-9.752-2.738h1.023v1.369c.683-1.027 1.536-1.54 2.901-1.54 2.73 0 3.925 2.395 3.925 4.79 0 2.396-1.194 4.791-3.925 4.791-1.194 0-2.218-.513-2.9-1.54V58zm5.801-7.87c0-1.882-.853-3.935-2.9-3.935-2.048 0-2.73 1.71-2.73 3.935 0 2.224.682 3.935 2.73 3.935 2.047-.171 2.9-2.053 2.9-3.935zM102.896 46.366c-1.877 0-2.389 1.54-2.389 3.08v5.132h-1.024v-6.501-2.738h1.024v1.37c.512-1.027 1.365-1.54 2.559-1.54h.512v1.026c-.341.171-.512.171-.682.171zM104.944 50.3c0 2.054 1.023 3.765 2.9 3.765 1.536 0 2.219-1.027 2.56-2.053h1.024c-.512 1.882-1.707 2.908-3.754 2.908-2.73 0-3.925-2.053-3.925-4.62 0-2.566 1.195-4.96 4.095-4.96 2.901 0 3.584 2.566 3.584 4.96h-6.484zm0-.855h5.46c0-1.71-.853-3.25-2.56-3.25-1.535 0-2.73 1.026-2.9 3.25zM115.864 54.92c-1.877 0-3.242-.855-3.242-2.908h1.024c0 1.368.853 2.053 2.218 2.053 1.195 0 2.219-.513 2.219-1.882 0-1.027-1.195-1.369-2.389-1.711-1.365-.513-2.901-.855-2.901-2.566 0-1.883 1.706-2.567 3.242-2.567 1.707 0 3.072.684 3.072 2.567h-1.024c0-1.027-.853-1.711-2.048-1.711-.853 0-2.048.342-2.048 1.54 0 1.026 1.195 1.368 2.219 1.71 1.365.343 3.071.856 3.071 2.567 0 2.053-1.535 2.908-3.413 2.908zM123.373 54.92c-1.878 0-3.243-.855-3.243-2.908h1.024c0 1.368.853 2.053 2.219 2.053 1.194 0 2.218-.513 2.218-1.882 0-1.027-1.195-1.369-2.389-1.711-1.365-.342-3.072-.855-3.072-2.566 0-1.883 1.707-2.567 3.243-2.567 1.706 0 3.071.684 3.071 2.567h-1.024c0-1.027-.853-1.711-2.047-1.711-.854 0-2.048.342-2.048 1.54 0 1.026 1.194 1.368 2.218 1.71 1.365.343 3.072.856 3.072 2.567.17 2.053-1.365 2.908-3.242 2.908z" fill="#000"/></svg>