<svg width="64" height="40" viewBox="0 0 64 40" fill="none" xmlns="http://www.w3.org/2000/svg">
<g clip-path="url(#clip0_501_711)">
<path d="M2.4541 36.2627H37.6226" stroke="#C39E3D" stroke-width="1.42857" stroke-linecap="round"/>
<path d="M4.82227 36.3636V24.0697C4.82227 23.5132 5.27343 23.062 5.82996 23.062H11.6746C12.2311 23.062 12.6823 23.5132 12.6823 24.0697V36.3636" stroke="#C39E3D" stroke-width="1.42857"/>
<path d="M16.4609 36.3636V20.8451C16.4609 20.2886 16.9121 19.8374 17.4686 19.8374H23.5148C24.0713 19.8374 24.5225 20.2886 24.5225 20.8451V36.3636" stroke="#C39E3D" stroke-width="1.42857"/>
<path d="M27.9492 36.3636V14.3959C27.9492 13.8393 28.4004 13.3882 28.9569 13.3882H35.0031C35.5596 13.3882 36.0108 13.8393 36.0108 14.3959V36.3636" stroke="#C39E3D" stroke-width="1.42857"/>
<path d="M4.66236 18.0465C4.28542 18.1629 4.07418 18.5627 4.19054 18.9397C4.3069 19.3166 4.7068 19.5279 5.08373 19.4115L4.87305 18.729L4.66236 18.0465ZM36.7138 3.84065C36.7836 3.45237 36.5254 3.08107 36.1371 3.01132L29.8098 1.8747C29.4215 1.80495 29.0502 2.06317 28.9805 2.45144C28.9107 2.83972 29.1689 3.21102 29.5572 3.28077L35.1815 4.2911L34.1711 9.91536C34.1014 10.3036 34.3596 10.6749 34.7479 10.7447C35.1362 10.8144 35.5075 10.5562 35.5772 10.1679L36.7138 3.84065ZM4.87305 18.729L5.08373 19.4115C18.7166 15.2031 25.5725 11.8436 36.4186 4.30078L36.0108 3.71436L35.603 3.12793C24.8824 10.5834 18.1604 13.8797 4.66236 18.0465L4.87305 18.729Z" fill="#C39E3D"/>
</g>
<defs>
<clipPath id="clip0_501_711">
<rect width="40" height="40" fill="white"/>
</clipPath>
</defs>
</svg>
