<svg width="64" height="40" viewBox="0 0 64 40" fill="none" xmlns="http://www.w3.org/2000/svg">
<g clip-path="url(#clip0_501_731)">
<path d="M10.4482 7.60205C5.93079 10.0016 2.85449 14.7549 2.85449 20.2266C2.85449 28.1164 9.25042 34.5123 17.1402 34.5123C25.03 34.5123 31.4259 28.1164 31.4259 20.2266C31.4259 12.3368 25.03 5.94092 17.1402 5.94092C15.9983 5.94092 14.8876 6.0749 13.8232 6.328" stroke="#C39E3D" stroke-width="1.42857" stroke-linecap="round"/>
<path d="M24.4262 28.9871C22.484 30.5118 20.0356 31.4211 17.3749 31.4211C11.063 31.4211 5.94629 26.3044 5.94629 19.9925C5.94629 13.6807 11.063 8.56396 17.3749 8.56396C23.6867 8.56396 28.8034 13.6807 28.8034 19.9925C28.8034 21.6208 28.4629 23.1694 27.8493 24.5713" stroke="#C39E3D" stroke-width="1.42857" stroke-linecap="round"/>
<path d="M20.1733 6.21229C23.7805 6.07033 27.2996 7.34762 29.9758 9.7702C32.6521 12.1928 34.2725 15.5677 34.4893 19.1711C34.7061 22.7745 33.5022 26.3193 31.1357 29.0453C28.7693 31.7714 25.4287 33.4614 21.8306 33.7531" stroke="#C39E3D" stroke-width="1.42857" stroke-linecap="round"/>
<path d="M25.4609 8.55713L28.2835 8.42822" stroke="#C39E3D" stroke-width="1.11635" stroke-linecap="round"/>
<path d="M28.252 11.0693L31.1406 11.0001" stroke="#C39E3D" stroke-width="1.11635" stroke-linecap="round"/>
<path d="M30.2051 13.8599L32.8546 13.8569" stroke="#C39E3D" stroke-width="1.11635" stroke-linecap="round"/>
<path d="M31.042 16.3999H33.9976" stroke="#C39E3D" stroke-width="1.11635" stroke-linecap="round"/>
<path d="M31.3193 19.0811H34.2853" stroke="#C39E3D" stroke-width="1.11635" stroke-linecap="round"/>
<path d="M31.3184 21.7656H34.2855" stroke="#C39E3D" stroke-width="1.11635" stroke-linecap="round"/>
<path d="M30.7627 24.4468H33.4256" stroke="#C39E3D" stroke-width="1.11635" stroke-linecap="round"/>
<path d="M29.6465 26.9883H32.5684" stroke="#C39E3D" stroke-width="1.11635" stroke-linecap="round"/>
<path d="M27.9717 29.5303H30.5695" stroke="#C39E3D" stroke-width="1.11635" stroke-linecap="round"/>
<path d="M25.1797 31.9287H27.4286" stroke="#C39E3D" stroke-width="1.11635" stroke-linecap="round"/>
</g>
<defs>
<clipPath id="clip0_501_731">
<rect width="40" height="40" fill="white"/>
</clipPath>
</defs>
</svg>
