<svg width="40" height="40" viewBox="0 0 40 40" fill="none" xmlns="http://www.w3.org/2000/svg">
<g clip-path="url(#clip0_674_1861)">
<path d="M10.4492 7.6023C5.93177 10.0019 2.85547 14.7551 2.85547 20.2269C2.85547 28.1167 9.2514 34.5126 17.1412 34.5126C25.031 34.5126 31.4269 28.1167 31.4269 20.2269C31.4269 12.3371 25.031 5.94116 17.1412 5.94116C15.9993 5.94116 14.8886 6.07514 13.8242 6.32825" stroke="#C39E3D" stroke-width="1.42857" stroke-linecap="round"/>
<path d="M24.4272 28.9873C22.4849 30.5121 20.0366 31.4214 17.3758 31.4214C11.064 31.4214 5.94727 26.3046 5.94727 19.9928C5.94727 13.681 11.064 8.56421 17.3758 8.56421C23.6877 8.56421 28.8044 13.681 28.8044 19.9928C28.8044 21.621 28.4639 23.1697 27.8502 24.5715" stroke="#C39E3D" stroke-width="1.42857" stroke-linecap="round"/>
<path d="M20.1753 6.21253C23.7824 6.07058 27.3015 7.34787 29.9778 9.77044C32.6541 12.193 34.2744 15.5679 34.4913 19.1713C34.7081 22.7747 33.5042 26.3196 31.1377 29.0456C28.7712 31.7716 25.4307 33.4617 21.8326 33.7533" stroke="#C39E3D" stroke-width="1.42857" stroke-linecap="round"/>
<path d="M25.4609 8.55762L28.2835 8.42871" stroke="#C39E3D" stroke-width="1.11635" stroke-linecap="round"/>
<path d="M28.252 11.0693L31.1406 11.0001" stroke="#C39E3D" stroke-width="1.11635" stroke-linecap="round"/>
<path d="M30.2051 13.8601L32.8546 13.8571" stroke="#C39E3D" stroke-width="1.11635" stroke-linecap="round"/>
<path d="M31.043 16.4004H33.9986" stroke="#C39E3D" stroke-width="1.11635" stroke-linecap="round"/>
<path d="M31.3203 19.0815H34.2863" stroke="#C39E3D" stroke-width="1.11635" stroke-linecap="round"/>
<path d="M31.3203 21.7659H34.2874" stroke="#C39E3D" stroke-width="1.11635" stroke-linecap="round"/>
<path d="M30.7637 24.447H33.4266" stroke="#C39E3D" stroke-width="1.11635" stroke-linecap="round"/>
<path d="M29.6484 26.9888H32.5704" stroke="#C39E3D" stroke-width="1.11635" stroke-linecap="round"/>
<path d="M27.9727 29.5303H30.5705" stroke="#C39E3D" stroke-width="1.11635" stroke-linecap="round"/>
<path d="M25.1797 31.929H27.4286" stroke="#C39E3D" stroke-width="1.11635" stroke-linecap="round"/>
</g>
<defs>
<clipPath id="clip0_674_1861">
<rect width="40" height="40" fill="white"/>
</clipPath>
</defs>
</svg>
