<svg width="101" height="26" viewBox="0 0 101 26" fill="none" xmlns="http://www.w3.org/2000/svg">
<path d="M13.5 19.3019L19.0095 17.9057L21.3114 25L13.5 19.3019ZM26.1793 10.1321H16.4812L13.5 1L10.5189 10.1321H0.820801L8.66986 15.7925L5.68872 24.9245L13.5378 19.2641L18.368 15.7925L26.1793 10.1321Z" fill="#DBAF3E"/>
<path d="M36.2808 6.625V18H33.9448V6.625H36.2808ZM39.7808 6.625V8.46094H30.4995V6.625H39.7808ZM42.6792 11.3906V18H40.4292V9.54688H42.5464L42.6792 11.3906ZM45.2261 9.49219L45.187 11.5781C45.0776 11.5625 44.9448 11.5495 44.7886 11.5391C44.6375 11.5234 44.4995 11.5156 44.3745 11.5156C44.0568 11.5156 43.7808 11.5573 43.5464 11.6406C43.3172 11.7188 43.1245 11.8359 42.9683 11.9922C42.8172 12.1484 42.7026 12.3385 42.6245 12.5625C42.5516 12.7865 42.5099 13.0417 42.4995 13.3281L42.0464 13.1875C42.0464 12.6406 42.1011 12.138 42.2104 11.6797C42.3198 11.2161 42.4787 10.8125 42.687 10.4688C42.9006 10.125 43.161 9.85938 43.4683 9.67188C43.7756 9.48438 44.1271 9.39062 44.5229 9.39062C44.6479 9.39062 44.7756 9.40104 44.9058 9.42188C45.036 9.4375 45.1427 9.46094 45.2261 9.49219ZM51.2886 15.9766V9.54688H53.5386V18H51.4214L51.2886 15.9766ZM51.5386 14.2422L52.2026 14.2266C52.2026 14.7891 52.1375 15.3125 52.0073 15.7969C51.8771 16.276 51.6818 16.6927 51.4214 17.0469C51.161 17.3958 50.8328 17.6693 50.437 17.8672C50.0412 18.0599 49.575 18.1562 49.0386 18.1562C48.6271 18.1562 48.2469 18.099 47.8979 17.9844C47.5542 17.8646 47.2573 17.6797 47.0073 17.4297C46.7625 17.1745 46.5698 16.849 46.4292 16.4531C46.2938 16.0521 46.2261 15.5703 46.2261 15.0078V9.54688H48.4761V15.0234C48.4761 15.2734 48.5047 15.4844 48.562 15.6562C48.6245 15.8281 48.7104 15.9688 48.8198 16.0781C48.9292 16.1875 49.0568 16.2656 49.2026 16.3125C49.3537 16.3594 49.5203 16.3828 49.7026 16.3828C50.1662 16.3828 50.5308 16.2891 50.7964 16.1016C51.0672 15.9141 51.2573 15.6589 51.3667 15.3359C51.4813 15.0078 51.5386 14.6432 51.5386 14.2422ZM59.8276 15.6641C59.8276 15.5026 59.7808 15.3568 59.687 15.2266C59.5933 15.0964 59.4188 14.9766 59.1636 14.8672C58.9136 14.7526 58.5516 14.6484 58.0776 14.5547C57.6506 14.4609 57.2521 14.3438 56.8823 14.2031C56.5177 14.0573 56.2 13.8828 55.9292 13.6797C55.6636 13.4766 55.4552 13.237 55.3042 12.9609C55.1532 12.6797 55.0776 12.3594 55.0776 12C55.0776 11.6458 55.1532 11.3125 55.3042 11C55.4604 10.6875 55.6818 10.4115 55.9683 10.1719C56.2599 9.92708 56.6141 9.73698 57.0308 9.60156C57.4526 9.46094 57.9266 9.39062 58.4526 9.39062C59.187 9.39062 59.8172 9.50781 60.3433 9.74219C60.8745 9.97656 61.2808 10.2995 61.562 10.7109C61.8485 11.1172 61.9917 11.5807 61.9917 12.1016H59.7417C59.7417 11.8828 59.6948 11.6875 59.6011 11.5156C59.5125 11.3385 59.3719 11.2005 59.1792 11.1016C58.9917 10.9974 58.7469 10.9453 58.4448 10.9453C58.1948 10.9453 57.9787 10.9896 57.7964 11.0781C57.6141 11.1615 57.4735 11.276 57.3745 11.4219C57.2808 11.5625 57.2339 11.7188 57.2339 11.8906C57.2339 12.0208 57.2599 12.138 57.312 12.2422C57.3693 12.3411 57.4604 12.4323 57.5854 12.5156C57.7104 12.599 57.8719 12.6771 58.0698 12.75C58.2729 12.8177 58.5229 12.8802 58.8198 12.9375C59.4292 13.0625 59.9735 13.2266 60.4526 13.4297C60.9318 13.6276 61.312 13.8984 61.5933 14.2422C61.8745 14.5807 62.0151 15.026 62.0151 15.5781C62.0151 15.9531 61.9318 16.2969 61.7651 16.6094C61.5985 16.9219 61.3589 17.1953 61.0464 17.4297C60.7339 17.6589 60.3589 17.8385 59.9214 17.9688C59.4891 18.0938 59.0021 18.1562 58.4604 18.1562C57.674 18.1562 57.0073 18.0156 56.4604 17.7344C55.9188 17.4531 55.5073 17.0964 55.2261 16.6641C54.95 16.2266 54.812 15.7786 54.812 15.3203H56.9448C56.9552 15.6276 57.0334 15.875 57.1792 16.0625C57.3302 16.25 57.5203 16.3854 57.7495 16.4688C57.9839 16.5521 58.2365 16.5938 58.5073 16.5938C58.799 16.5938 59.0412 16.5547 59.2339 16.4766C59.4266 16.3932 59.5724 16.2839 59.6714 16.1484C59.7756 16.0078 59.8276 15.8464 59.8276 15.6641ZM67.6167 9.54688V11.1406H62.6948V9.54688H67.6167ZM63.9136 7.46094H66.1636V15.4531C66.1636 15.6979 66.1948 15.8854 66.2573 16.0156C66.325 16.1458 66.424 16.237 66.5542 16.2891C66.6844 16.3359 66.8485 16.3594 67.0464 16.3594C67.187 16.3594 67.312 16.3542 67.4214 16.3438C67.536 16.3281 67.6323 16.3125 67.7104 16.2969L67.7183 17.9531C67.5256 18.0156 67.3172 18.0651 67.0933 18.1016C66.8693 18.138 66.6219 18.1562 66.3511 18.1562C65.8563 18.1562 65.424 18.0755 65.0542 17.9141C64.6896 17.7474 64.4084 17.4818 64.2104 17.1172C64.0125 16.7526 63.9136 16.2734 63.9136 15.6797V7.46094ZM71.1479 11.1719V21.25H68.8979V9.54688H70.9839L71.1479 11.1719ZM76.4995 13.6797V13.8438C76.4995 14.4583 76.4266 15.0286 76.2808 15.5547C76.1401 16.0807 75.9318 16.5391 75.6558 16.9297C75.3797 17.3151 75.036 17.6172 74.6245 17.8359C74.2183 18.0495 73.7495 18.1562 73.2183 18.1562C72.7026 18.1562 72.2547 18.0521 71.8745 17.8438C71.4943 17.6354 71.174 17.3438 70.9136 16.9688C70.6584 16.5885 70.4526 16.1484 70.2964 15.6484C70.1401 15.1484 70.0203 14.612 69.937 14.0391V13.6094C70.0203 12.9948 70.1401 12.4323 70.2964 11.9219C70.4526 11.4062 70.6584 10.9609 70.9136 10.5859C71.174 10.2057 71.4917 9.91146 71.8667 9.70312C72.2469 9.49479 72.6922 9.39062 73.2026 9.39062C73.7391 9.39062 74.2104 9.49219 74.6167 9.69531C75.0282 9.89844 75.3719 10.1901 75.6479 10.5703C75.9292 10.9505 76.1401 11.4036 76.2808 11.9297C76.4266 12.4557 76.4995 13.0391 76.4995 13.6797ZM74.2417 13.8438V13.6797C74.2417 13.3203 74.2104 12.9896 74.1479 12.6875C74.0907 12.3802 73.9969 12.112 73.8667 11.8828C73.7417 11.6536 73.575 11.4766 73.3667 11.3516C73.1636 11.2214 72.9162 11.1562 72.6245 11.1562C72.3172 11.1562 72.0542 11.2057 71.8354 11.3047C71.6219 11.4036 71.4474 11.5469 71.312 11.7344C71.1766 11.9219 71.075 12.1458 71.0073 12.4062C70.9396 12.6667 70.8979 12.9609 70.8823 13.2891V14.375C70.9084 14.7604 70.9813 15.1068 71.1011 15.4141C71.2209 15.7161 71.4058 15.9557 71.6558 16.1328C71.9058 16.3099 72.2339 16.3984 72.6401 16.3984C72.937 16.3984 73.187 16.3333 73.3901 16.2031C73.5933 16.0677 73.7573 15.8828 73.8823 15.6484C74.0125 15.4141 74.1037 15.1432 74.1558 14.8359C74.2131 14.5286 74.2417 14.1979 74.2417 13.8438ZM80.2729 9.54688V18H78.0151V9.54688H80.2729ZM77.8745 7.34375C77.8745 7.01562 77.9891 6.74479 78.2183 6.53125C78.4474 6.31771 78.7547 6.21094 79.1401 6.21094C79.5203 6.21094 79.825 6.31771 80.0542 6.53125C80.2886 6.74479 80.4058 7.01562 80.4058 7.34375C80.4058 7.67188 80.2886 7.94271 80.0542 8.15625C79.825 8.36979 79.5203 8.47656 79.1401 8.47656C78.7547 8.47656 78.4474 8.36979 78.2183 8.15625C77.9891 7.94271 77.8745 7.67188 77.8745 7.34375ZM84.5073 6V18H82.2495V6H84.5073ZM86.0073 13.8594V13.6953C86.0073 13.0755 86.0959 12.5052 86.2729 11.9844C86.45 11.4583 86.7078 11.0026 87.0464 10.6172C87.3849 10.2318 87.8016 9.93229 88.2964 9.71875C88.7912 9.5 89.3589 9.39062 89.9995 9.39062C90.6401 9.39062 91.2104 9.5 91.7104 9.71875C92.2104 9.93229 92.6297 10.2318 92.9683 10.6172C93.312 11.0026 93.5724 11.4583 93.7495 11.9844C93.9266 12.5052 94.0151 13.0755 94.0151 13.6953V13.8594C94.0151 14.474 93.9266 15.0443 93.7495 15.5703C93.5724 16.0911 93.312 16.5469 92.9683 16.9375C92.6297 17.3229 92.2131 17.6224 91.7183 17.8359C91.2235 18.0495 90.6558 18.1562 90.0151 18.1562C89.3745 18.1562 88.8042 18.0495 88.3042 17.8359C87.8094 17.6224 87.3901 17.3229 87.0464 16.9375C86.7078 16.5469 86.45 16.0911 86.2729 15.5703C86.0959 15.0443 86.0073 14.474 86.0073 13.8594ZM88.2573 13.6953V13.8594C88.2573 14.2135 88.2886 14.5443 88.3511 14.8516C88.4136 15.1589 88.5125 15.4297 88.6479 15.6641C88.7886 15.8932 88.9709 16.0729 89.1948 16.2031C89.4188 16.3333 89.6922 16.3984 90.0151 16.3984C90.3276 16.3984 90.5959 16.3333 90.8198 16.2031C91.0438 16.0729 91.2235 15.8932 91.3589 15.6641C91.4943 15.4297 91.5933 15.1589 91.6558 14.8516C91.7235 14.5443 91.7573 14.2135 91.7573 13.8594V13.6953C91.7573 13.3516 91.7235 13.0286 91.6558 12.7266C91.5933 12.4193 91.4917 12.1484 91.3511 11.9141C91.2157 11.6745 91.036 11.487 90.812 11.3516C90.5881 11.2161 90.3172 11.1484 89.9995 11.1484C89.6818 11.1484 89.411 11.2161 89.187 11.3516C88.9683 11.487 88.7886 11.6745 88.6479 11.9141C88.5125 12.1484 88.4136 12.4193 88.3511 12.7266C88.2886 13.0286 88.2573 13.3516 88.2573 13.6953ZM99.5386 9.54688V11.1406H94.6167V9.54688H99.5386ZM95.8354 7.46094H98.0854V15.4531C98.0854 15.6979 98.1167 15.8854 98.1792 16.0156C98.2469 16.1458 98.3459 16.237 98.4761 16.2891C98.6063 16.3359 98.7703 16.3594 98.9683 16.3594C99.1089 16.3594 99.2339 16.3542 99.3433 16.3438C99.4578 16.3281 99.5542 16.3125 99.6323 16.2969L99.6401 17.9531C99.4474 18.0156 99.2391 18.0651 99.0151 18.1016C98.7912 18.138 98.5438 18.1562 98.2729 18.1562C97.7782 18.1562 97.3459 18.0755 96.9761 17.9141C96.6115 17.7474 96.3302 17.4818 96.1323 17.1172C95.9344 16.7526 95.8354 16.2734 95.8354 15.6797V7.46094Z" fill="white"/>
</svg>
